HIERARCHY
ROOT Hips
{
  OFFSET 4.59272 96.8285 -1.4085
  CHANNELS 6 Xposition Yposition Zposition Zrotation Xrotation Yrotation
  JOINT Spine
  {
    OFFSET 0 11.0026 -2.28207
    CHANNELS 6 Xposition Yposition Zposition Zrotation Xrotation Yrotation
    JOINT Spine1
    {
      OFFSET 0 10.9693 0
      CHANNELS 6 Xposition Yposition Zposition Zrotation Xrotation Yrotation
      JOINT Spine2
      {
        OFFSET 0 10.9693 0
        CHANNELS 6 Xposition Yposition Zposition Zrotation Xrotation Yrotation
        JOINT Spine3
        {
          OFFSET 0 10.9693 0
          CHANNELS 6 Xposition Yposition Zposition Zrotation Xrotation Yrotation
          JOINT Neck
          {
            OFFSET 0 14.1034 1.41034
            CHANNELS 6 Xposition Yposition Zposition Zrotation Xrotation Yrotation
            JOINT Neck1
            {
              OFFSET 0 4.78292 0
              CHANNELS 6 Xposition Yposition Zposition Zrotation Xrotation Yrotation
              JOINT Head
              {
                OFFSET 0 4.78292 0
                CHANNELS 6 Xposition Yposition Zposition Zrotation Xrotation Yrotation
                End Site
                {
                  OFFSET 0 9.72808 0
                }
              }
            }
          }
          JOINT RightShoulder
          {
            OFFSET 0 10.0739 5.27092
            CHANNELS 6 Xposition Yposition Zposition Zrotation Xrotation Yrotation
            JOINT RightArm
            {
              OFFSET 0 20.7223 0
              CHANNELS 6 Xposition Yposition Zposition Zrotation Xrotation Yrotation
              JOINT RightForeArm
              {
                OFFSET 0 28.842 0
                CHANNELS 6 Xposition Yposition Zposition Zrotation Xrotation Yrotation
                JOINT RightHand
                {
                  OFFSET 0 25.0424 0
                  CHANNELS 6 Xposition Yposition Zposition Zrotation Xrotation Yrotation
                  JOINT RightHandThumb1
                  {
                    OFFSET -3.04472 3.62624 2.69644
                    CHANNELS 6 Xposition Yposition Zposition Zrotation Xrotation Yrotation
                    End Site
                    {
                      OFFSET 0 0 0
                    }
                  }
                  JOINT RightHandMiddle1
                  {
                    OFFSET 0 9.66998 -0.061987
                    CHANNELS 6 Xposition Yposition Zposition Zrotation Xrotation Yrotation
                    End Site
                    {
                      OFFSET 0 0 0
                    }
                  }
                }
              }
            }
          }
          JOINT LeftShoulder
          {
            OFFSET 0 10.0739 5.27092
            CHANNELS 6 Xposition Yposition Zposition Zrotation Xrotation Yrotation
            JOINT LeftArm
            {
              OFFSET 0 20.7223 0
              CHANNELS 6 Xposition Yposition Zposition Zrotation Xrotation Yrotation
              JOINT LeftForeArm
              {
                OFFSET 0 28.842 0
                CHANNELS 6 Xposition Yposition Zposition Zrotation Xrotation Yrotation
                JOINT LeftHand
                {
                  OFFSET 0 25.0424 0
                  CHANNELS 6 Xposition Yposition Zposition Zrotation Xrotation Yrotation
                  JOINT LeftHandThumb1
                  {
                    OFFSET 3.04472 3.62624 2.69644
                    CHANNELS 6 Xposition Yposition Zposition Zrotation Xrotation Yrotation
                    End Site
                    {
                      OFFSET 0 0 0
                    }
                  }
                  JOINT LeftHandMiddle1
                  {
                    OFFSET 0 9.66998 -0.061987
                    CHANNELS 6 Xposition Yposition Zposition Zrotation Xrotation Yrotation
                    End Site
                    {
                      OFFSET 0 0 0
                    }
                  }
                }
              }
            }
          }
        }
      }
    }
  }
  JOINT RightUpLeg
  {
    OFFSET -10.3008 0 0
    CHANNELS 6 Xposition Yposition Zposition Zrotation Xrotation Yrotation
    JOINT RightLeg
    {
      OFFSET 0 -44.9556 0
      CHANNELS 6 Xposition Yposition Zposition Zrotation Xrotation Yrotation
      JOINT RightFoot
      {
        OFFSET 0 -44.3497 0
        CHANNELS 6 Xposition Yposition Zposition Zrotation Xrotation Yrotation
        JOINT RightForeFoot
        {
          OFFSET 0 -4.35574 0
          CHANNELS 6 Xposition Yposition Zposition Zrotation Xrotation Yrotation
          JOINT RightToeBase
          {
            OFFSET 0 0 17.0584
            CHANNELS 6 Xposition Yposition Zposition Zrotation Xrotation Yrotation
            End Site
            {
              OFFSET 0 0 6.41607
            }
          }
        }
      }
    }
  }
  JOINT LeftUpLeg
  {
    OFFSET 10.3008 0 0
    CHANNELS 6 Xposition Yposition Zposition Zrotation Xrotation Yrotation
    JOINT LeftLeg
    {
      OFFSET 0 -44.9556 0
      CHANNELS 6 Xposition Yposition Zposition Zrotation Xrotation Yrotation
      JOINT LeftFoot
      {
        OFFSET 0 -44.3497 0
        CHANNELS 6 Xposition Yposition Zposition Zrotation Xrotation Yrotation
        JOINT LeftForeFoot
        {
          OFFSET 0 -4.35574 0
          CHANNELS 6 Xposition Yposition Zposition Zrotation Xrotation Yrotation
          JOINT LeftToeBase
          {
            OFFSET 0 0 17.0584
            CHANNELS 6 Xposition Yposition Zposition Zrotation Xrotation Yrotation
            End Site
            {
              OFFSET 0 0 7.80259
            }
          }
        }
      }
    }
  }
}
MOTION
Frames:	4
Frame Time:	0.00833333
5.1675 96.9221 -2.85748 -0.451024 -7.30617 -10.8045 0 11.0026 -2.28207 -4.57453 6.3895 0.224409 -1.77636e-015 10.9693 8.88178e-016 -0.696 6.3338 0.179029 -4.44089e-016 10.9693 0 -0.136346 10.1226 -0.369461 2.66454e-015 10.9693 7.10543e-015 0.392695 8.19193 -0.818821 0 14.1034 1.41034 -8.56468 -1.43871 6.73852 -3.55271e-015 4.78292 0 5.07349 -6.82819 3.84244 0 4.78292 0 1.29881 -13.4905 0.423893 -8.88178e-016 10.0739 5.27092 90.0884 -13.5218 0.0206779 0 20.7223 7.10543e-015 40.8279 -38.7464 -93.0626 -1.42109e-014 28.842 -1.42109e-014 -180 66.798 -103.921 0 25.0424 0 15.9494 -26.7727 -0 -3.04472 3.62624 2.69644 1.9201e-014 45.2637 -1.80753e-014 0 9.66998 -0.061987 1.59028e-015 -3.18055e-015 3.18055e-015 -8.88178e-016 10.0739 5.27092 -95.6102 -16.904 -1.63607 2.84217e-014 20.7223 7.10543e-015 -45.5735 -8.08847 32.1784 0 28.842 -1.42109e-014 3.98463e-009 39.8183 -2.61728 0 25.0424 7.10543e-015 -6.01788 -11.9182 1.95038e-014 3.04472 3.62624 2.69644 -7.21506e-015 45.2637 9.03765e-015 -7.10543e-015 9.66998 -0.061987 -7.95139e-016 1.59028e-015 6.36111e-015 -10.3008 -2.84217e-014 1.77636e-015 -9.80639 7.62003 0.615598 0 -44.9556 0 -1.01647e-016 5.39608 3.19471e-015 3.55271e-015 -44.3497 1.77636e-015 1.50603 -6.25139 11.7909 -3.55271e-015 -4.35574 0 3.74585e-015 -1.98785e-016 4.96962e-017 3.55271e-015 0 17.0584 3.78325e-015 -14.3638 1.53899e-016 10.3008 -1.42109e-014 0 -1.41048 15.6155 11.4478 -3.55271e-015 -44.9556 -1.77636e-015 -1.43356e-016 -2.56973 -1.49239e-016 3.55271e-015 -44.3497 0 3.04836 -5.74605 7.78979 0 -4.35574 0 1.19931e-015 -5.74612e-017 -0 0 8.88178e-016 17.0584 6.31271e-016 -8.60646 1.60839e-015 
5.19211 96.9274 -2.87918 -0.475055 -7.21131 -10.9186 0 11.0026 -2.28207 -4.58412 6.33174 0.229034 0 10.9693 -8.88178e-016 -0.6872 6.31464 0.179027 -1.33227e-015 10.9693 0 -0.146563 10.1103 -0.271092 8.88178e-016 10.9693 7.10543e-015 0.389789 8.19774 -0.797031 8.88178e-016 14.1034 1.41034 -8.36379 -1.51499 6.7539 -3.55271e-015 4.78292 7.10543e-015 5.04939 -6.82186 3.81919 -8.88178e-016 4.78292 0 1.29364 -13.4775 0.421803 8.88178e-016 10.0739 5.27092 90.1401 -13.3887 0.0322796 -2.84217e-014 20.7223 0 40.9025 -38.372 -93.3916 1.42109e-014 28.842 0 -179.981 66.8917 -100.928 0 25.0424 0 13.0036 -27.1755 0.0352095 -3.04472 3.62624 2.69644 7.98079e-015 45.2637 -4.51883e-015 -1.42109e-014 9.66998 -0.061987 1.59028e-015 -6.36111e-015 -3.18055e-015 8.88178e-016 10.0739 5.27092 -95.8184 -16.8897 -1.69572 0 20.7223 0 -46.0287 -7.86188 31.4812 -7.10543e-015 28.842 -1.42109e-014 -0.0105098 39.0518 -2.20402 0 25.0424 0 -5.77231 -11.8536 0.000424275 3.04472 3.62624 2.69644 -8.24547e-016 45.2637 4.51883e-015 0 9.66998 -0.061987 3.97569e-015 0 3.18055e-015 -10.3008 0 1.77636e-015 -9.79779 7.52815 0.64093 -7.10543e-015 -44.9556 0 3.98806e-016 5.31164 1.59714e-015 0 -44.3497 0 1.53093 -6.17012 11.867 0 -4.35574 -1.77636e-015 9.78393e-017 1.98785e-016 9.93923e-017 3.55271e-015 -4.44089e-016 17.0584 1.08253e-016 -14.382 5.1304e-017 10.3008 0 0 -1.42327 15.5746 11.4426 0 -44.9556 0 -1.51407e-016 -2.67081 -4.97502e-017 0 -44.3497 -1.77636e-015 3.07152 -5.69662 7.91426 -3.55271e-015 -4.35574 0 5.48987e-016 3.26131e-017 -0 3.55271e-015 8.88178e-016 17.0584 5.48211e-016 -8.61354 -0 
5.22227 96.929 -2.89733 -0.498891 -7.1164 -11.0327 1.77636e-015 11.0026 -2.28207 -4.5937 6.27398 0.233648 8.88178e-016 10.9693 0 -0.678401 6.29548 0.179029 0 10.9693 -3.55271e-015 -0.156758 10.0981 -0.172728 -8.88178e-016 10.9693 0 0.38688 8.20355 -0.775242 0 14.1034 1.41034 -8.16287 -1.59122 6.76955 -3.55271e-015 4.78292 0 5.02528 -6.81552 3.79594 -4.44089e-016 4.78292 -7.10543e-015 1.28847 -13.4645 0.419713 -1.77636e-015 10.0739 5.27092 90.1918 -13.2556 0.0437516 0 20.7223 0 40.9795 -37.9979 -93.7196 1.42109e-014 28.842 -1.42109e-014 -179.975 66.9858 -97.9195 7.10543e-015 25.0424 1.42109e-014 10.0433 -27.5799 0.04715 -3.04472 3.62624 2.69644 8.03961e-015 45.2637 -1.35565e-014 -7.10543e-015 9.66998 -0.061987 1.59028e-015 1.59028e-015 -6.36111e-015 -1.77636e-015 10.0739 5.27092 -96.0266 -16.8753 -1.75533 0 20.7223 1.42109e-014 -46.4808 -7.62981 30.7861 -7.10543e-015 28.842 -1.42109e-014 -0.0138646 38.2852 -1.79529 -1.42109e-014 25.0424 0 -5.52679 -11.789 0.000565569 3.04472 3.62624 2.69644 5.59538e-015 45.2637 -4.51883e-015 1.42109e-014 9.66998 -0.061987 2.38542e-015 -3.18055e-015 -3.18055e-015 -10.3008 0 0 -9.78915 7.43627 0.66627 0 -44.9556 0 -7.95139e-016 5.2272 -0 0 -44.3497 0 1.55572 -6.08881 11.943 3.55271e-015 -4.35574 1.77636e-015 -1.39693e-015 1.98785e-016 9.93923e-017 3.55271e-015 1.11022e-015 17.0584 -6.3774e-016 -14.4003 -1.53925e-016 10.3008 0 0 -1.43606 15.5337 11.4374 0 -44.9556 -1.77636e-015 -9.98955e-017 -2.77188 -7.46316e-017 0 -44.3497 1.77636e-015 3.09457 -5.64715 8.0387 0 -4.35574 0 5.29575e-016 -1.45982e-016 -4.77083e-015 -3.55271e-015 0 17.0584 -1.01602e-015 -8.62062 -4.82535e-015 
5.25208 96.9288 -2.91202 -0.522532 -7.02144 -11.1466 -8.88178e-016 11.0026 -2.28207 -4.60327 6.21622 0.238251 -8.88178e-016 10.9693 0 -0.669602 6.27632 0.179033 -8.88178e-016 10.9693 -3.55271e-015 -0.166932 10.0859 -0.0743702 0 10.9693 0 0.383968 8.20937 -0.753451 1.77636e-015 14.1034 1.41034 -7.96192 -1.66739 6.78546 0 4.78292 7.10543e-015 5.00118 -6.80918 3.7727 -8.88178e-016 4.78292 0 1.28331 -13.4515 0.417626 1.77636e-015 10.0739 5.27092 90.2434 -13.1224 0.055094 2.84217e-014 20.7223 -7.10543e-015 41.0588 -37.6242 -94.0465 0 28.842 0 -179.981 67.0799 -94.8993 7.10543e-015 25.0424 1.42109e-014 7.07208 -27.9843 0.03547 -3.04472 3.62624 2.69644 -1.2781e-014 45.2637 9.03765e-015 7.10543e-015 9.66998 -0.061987 -3.08973e-031 -5.56597e-015 -3.18055e-015 1.77636e-015 10.0739 5.27092 -96.2347 -16.8607 -1.81487 0 20.7223 0 -46.9299 -7.39232 30.0933 -1.42109e-014 28.842 0 -0.0102901 37.5186 -1.39086 0 25.0424 -7.10543e-015 -5.28134 -11.7243 0.000424075 3.04472 3.62624 2.69644 -1.5137e-014 45.2637 4.51883e-015 0 9.66998 -0.061987 -7.15625e-015 -4.77083e-015 3.18055e-015 -10.3008 -1.42109e-014 8.88178e-016 -9.78048 7.3444 0.691619 0 -44.9556 0 -4.03533e-016 5.14276 -1.5967e-015 0 -44.3497 0 1.5804 -6.00747 12.019 0 -4.35574 0 -7.57867e-016 -1.98785e-016 -9.93923e-017 3.55271e-015 4.44089e-016 17.0584 -9.14649e-016 -14.4185 -6.67061e-016 10.3008 -1.42109e-014 -1.77636e-015 -1.44885 15.4929 11.4321 0 -44.9556 0 9.28743e-017 -2.87296 2.48794e-017 3.55271e-015 -44.3497 0 3.11751 -5.59762 8.16311 -3.55271e-015 -4.35574 1.77636e-015 -6.5498e-016 -1.27346e-016 1.59028e-015 0 0 17.0584 -6.56533e-016 -8.62769 -0 
